<?xml version="1.0" encoding="UTF-8" standalone="no"?>
<!-- Generator: Adobe Illustrator 16.0.0, SVG Export Plug-In . SVG Version: 6.00 Build 0)  -->

<svg
   version="1.1"
   id="Layer_1"
   x="0px"
   y="0px"
   width="549.73792"
   height="1000"
   viewBox="0 0 549.73792 999.99996"
   enable-background="new 0 0 1000 717.801"
   xml:space="preserve"
   sodipodi:docname="Netflix_(Symbol).svg"
   inkscape:version="1.1.2 (b8e25be833, 2022-02-05)"
   xmlns:inkscape="http://www.inkscape.org/namespaces/inkscape"
   xmlns:sodipodi="http://sodipodi.sourceforge.net/DTD/sodipodi-0.dtd"
   xmlns:xlink="http://www.w3.org/1999/xlink"
   xmlns="http://www.w3.org/2000/svg"
   xmlns:svg="http://www.w3.org/2000/svg"><defs
   id="defs53"><linearGradient
   inkscape:collect="always"
   id="linearGradient96698"><stop
     style="stop-color:#b20710;stop-opacity:1"
     offset="0"
     id="stop96694" /><stop
     style="stop-color:#000000;stop-opacity:1"
     offset="1"
     id="stop96696" /></linearGradient>
	
	
<path
   id="SVGID_1_-4"
   d="M 31.285,12.674 C 28.814,11.679 5.07,2.056 1.66,0.668 1.568,0.631 1.367,0.549 1.125,0.451 0.731,0.295 0.887,0.361 0.698,0.284 0.288,0.12 0.152,0.063 0.007,0.004 0.004,7.47 0.001,18.523 0,30.344 -0.001,45.461 0,61.513 0,69.49 c 0,15.379 0,54.958 0,69.583 0,28.229 0,245.806 0,261.019 0,14.813 0,584.218 0,599.908 78.021,-9.375 117.041,-13.021 196.41,-16.636 0,-15.224 0,-166.2 0,-188.218 0,-127.114 0,-216.569 0,-265.88 0,-20.753 0,-28.441 0,-49.729 C 190.4,462.548 164.969,390.434 158.457,372.274 146.297,337.64 77.08,142.148 71.547,126.509 66.585,112.477 52.769,73.469 48.378,60.987 45.811,53.765 39.107,34.865 35.545,24.784 32.761,16.901 33.013,17.549 31.285,12.674 Z" /><rect
   id="SVGID_3_-4"
   x="-0.001"
   y="0.0040000002"
   width="196.412"
   height="999.99597" /><path
   id="SVGID_5_-6"
   d="m 518.801,987.323 c 2.472,0.99 26.215,10.619 29.625,12.01 0.094,0.033 0.293,0.111 0.534,0.211 0.396,0.155 0.239,0.089 0.428,0.168 0.41,0.166 0.545,0.221 0.693,0.277 0.002,-7.461 0.004,-18.516 0.006,-30.336 0,-15.124 0,-31.17 0,-39.143 0,-15.379 0,-54.967 0,-69.59 0,-28.223 0,-245.799 0,-261.015 0,-14.814 0,-584.215 0,-599.906 -15.429,0 -171.526,0 -196.411,0 0,15.231 0,182.833 0,204.854 0,127.107 0,216.567 0,265.877 0,20.752 0,28.44 0,49.728 6.01,16.992 31.441,89.104 37.953,107.264 12.16,34.64 81.378,230.13 86.909,245.765 4.963,14.034 18.778,53.043 23.17,65.52 2.567,7.228 9.272,26.134 12.832,36.208 2.786,7.883 2.534,7.237 4.261,12.108 z" /><rect
   id="SVGID_7_-7"
   x="353.67599"
   width="196.411"
   height="999.98901"
   y="0" />
	
	
	
<style
   id="style2">.cls-1{fill:#e50914;}</style><linearGradient
   inkscape:collect="always"
   xlink:href="#linearGradient96698"
   id="linearGradient19270"
   x1="450.16357"
   y1="382.47369"
   x2="490.76151"
   y2="370.45291"
   gradientUnits="userSpaceOnUse" /><linearGradient
   inkscape:collect="always"
   xlink:href="#linearGradient96698"
   id="linearGradient26214"
   x1="550.92523"
   y1="366.19424"
   x2="510.52448"
   y2="378.62927"
   gradientUnits="userSpaceOnUse" /></defs><sodipodi:namedview
   id="namedview51"
   pagecolor="#ffffff"
   bordercolor="#666666"
   borderopacity="1.0"
   inkscape:pageshadow="2"
   inkscape:pageopacity="0.0"
   inkscape:pagecheckerboard="0"
   showgrid="false"
   inkscape:zoom="0.35355339"
   inkscape:cx="63.63961"
   inkscape:cy="537.40115"
   inkscape:window-width="1366"
   inkscape:window-height="705"
   inkscape:window-x="-8"
   inkscape:window-y="-8"
   inkscape:window-maximized="1"
   inkscape:current-layer="Layer_1" />

<g
   id="g26523"
   transform="matrix(2.7340623,0,0,2.7340623,-1082.0657,-481.35327)"><path
     style="color:#000000;font-style:normal;font-variant:normal;font-weight:normal;font-stretch:normal;font-size:medium;line-height:normal;font-family:sans-serif;font-variant-ligatures:normal;font-variant-position:normal;font-variant-caps:normal;font-variant-numeric:normal;font-variant-alternates:normal;font-variant-east-asian:normal;font-feature-settings:normal;font-variation-settings:normal;text-indent:0;text-align:start;text-decoration:none;text-decoration-line:none;text-decoration-style:solid;text-decoration-color:#000000;letter-spacing:normal;word-spacing:normal;text-transform:none;writing-mode:lr-tb;direction:ltr;text-orientation:mixed;dominant-baseline:auto;baseline-shift:baseline;text-anchor:start;white-space:normal;shape-padding:0;shape-margin:0;inline-size:0;clip-rule:nonzero;display:inline;overflow:visible;visibility:visible;opacity:1;isolation:auto;mix-blend-mode:normal;color-interpolation:sRGB;color-interpolation-filters:linearRGB;solid-color:#000000;solid-opacity:1;vector-effect:none;fill:url(#linearGradient19270);fill-opacity:1;fill-rule:nonzero;stroke:none;stroke-width:0.365526;stroke-linecap:butt;stroke-linejoin:miter;stroke-miterlimit:4;stroke-dasharray:none;stroke-dashoffset:0;stroke-opacity:1;paint-order:stroke markers fill;color-rendering:auto;image-rendering:auto;shape-rendering:auto;text-rendering:auto;enable-background:accumulate;stop-color:#000000"
     d="M 395.77216,176.138 467.509,176.0579 V 535.432 c 0,0 -18.71885,1.29503 -35.02408,2.4028 -16.30523,1.10778 -36.71276,3.97921 -36.71276,3.97921 z"
     id="path3253"
     sodipodi:nodetypes="ccczcc" /><path
     id="path3253-0"
     style="color:#000000;font-style:normal;font-variant:normal;font-weight:normal;font-stretch:normal;font-size:medium;line-height:normal;font-family:sans-serif;font-variant-ligatures:normal;font-variant-position:normal;font-variant-caps:normal;font-variant-numeric:normal;font-variant-alternates:normal;font-variant-east-asian:normal;font-feature-settings:normal;font-variation-settings:normal;text-indent:0;text-align:start;text-decoration:none;text-decoration-line:none;text-decoration-style:solid;text-decoration-color:#000000;letter-spacing:normal;word-spacing:normal;text-transform:none;writing-mode:lr-tb;direction:ltr;text-orientation:mixed;dominant-baseline:auto;baseline-shift:baseline;text-anchor:start;white-space:normal;shape-padding:0;shape-margin:0;inline-size:0;clip-rule:nonzero;display:inline;overflow:visible;visibility:visible;opacity:1;isolation:auto;mix-blend-mode:normal;color-interpolation:sRGB;color-interpolation-filters:linearRGB;solid-color:#000000;solid-opacity:1;vector-effect:none;fill:url(#linearGradient26214);fill-opacity:1;fill-rule:nonzero;stroke:none;stroke-width:0.365526;stroke-linecap:butt;stroke-linejoin:miter;stroke-miterlimit:4;stroke-dasharray:none;stroke-dashoffset:0;stroke-opacity:1;paint-order:stroke markers fill;color-rendering:auto;image-rendering:auto;shape-rendering:auto;text-rendering:auto;enable-background:accumulate;stop-color:#000000"
     d="m 525.10547,176.13867 v 359.14258 l 35.02344,0.4043 36.71289,5.97851 V 176.13867 Z"
     sodipodi:nodetypes="cccccc" /><path
     style="color:#000000;font-style:normal;font-variant:normal;font-weight:normal;font-stretch:normal;font-size:medium;line-height:normal;font-family:sans-serif;font-variant-ligatures:normal;font-variant-position:normal;font-variant-caps:normal;font-variant-numeric:normal;font-variant-alternates:normal;font-variant-east-asian:normal;font-feature-settings:normal;font-variation-settings:normal;text-indent:0;text-align:start;text-decoration:none;text-decoration-line:none;text-decoration-style:solid;text-decoration-color:#000000;letter-spacing:normal;word-spacing:normal;text-transform:none;writing-mode:lr-tb;direction:ltr;text-orientation:mixed;dominant-baseline:auto;baseline-shift:baseline;text-anchor:start;white-space:normal;shape-padding:0;shape-margin:0;inline-size:0;clip-rule:nonzero;display:inline;overflow:visible;visibility:visible;opacity:1;isolation:auto;mix-blend-mode:normal;color-interpolation:sRGB;color-interpolation-filters:linearRGB;solid-color:#000000;solid-opacity:1;vector-effect:none;fill:#e50914;fill-opacity:1;fill-rule:nonzero;stroke:none;stroke-width:0.365526;stroke-linecap:butt;stroke-linejoin:miter;stroke-miterlimit:4;stroke-dasharray:none;stroke-dashoffset:0;stroke-opacity:1;paint-order:stroke markers fill;color-rendering:auto;image-rendering:auto;shape-rendering:auto;text-rendering:auto;enable-background:accumulate;stop-color:#000000"
     d="m 395.77216,176.138 h 71.79296 l 129.27704,365.526 c 0,0 -22.66742,-2.72635 -39.21505,-4.06507 -16.54763,-1.33872 -34.7272,-2.01582 -34.7272,-2.01582 z"
     id="path3251"
     sodipodi:nodetypes="ccczcc" /></g></svg>
